<svg width="38" height="28" viewBox="0 0 38 28" fill="none" xmlns="http://www.w3.org/2000/svg">
<path d="M16.6792 28C17.9178 28 18.9218 26.9926 18.9218 25.75C18.9218 24.5074 17.9178 23.5 16.6792 23.5C15.4406 23.5 14.4365 24.5074 14.4365 25.75C14.4365 26.9926 15.4406 28 16.6792 28Z" fill="#232323"/>
<path d="M27.145 28C28.3835 28 29.3876 26.9926 29.3876 25.75C29.3876 24.5074 28.3835 23.5 27.145 23.5C25.9064 23.5 24.9023 24.5074 24.9023 25.75C24.9023 26.9926 25.9064 28 27.145 28Z" fill="#232323"/>
<path d="M0.980469 1H7.78324L13.3338 18.6322H29.9483L36.8632 1" stroke="#232323" stroke-width="1.2" stroke-linecap="round" stroke-linejoin="round"/>
</svg>
